
<svg width="146px" height="56px" viewBox="0 0 146 53" version="1.1" xmlns="http://www.w3.org/2000/svg" xmlns:xlink="http://www.w3.org/1999/xlink">
    <!-- Generator: Sketch 44.1 (41455) - http://www.bohemiancoding.com/sketch -->
    <desc>Created with Sketch.</desc>
    <defs></defs>
    <g id="Assets" stroke="none" stroke-width="1" fill="none" fill-rule="evenodd">
        <g id="SD-Logo-vector" transform="translate(-32.000000, -213.000000)" fill-rule="nonzero">
            <g id="Logo-normal" transform="translate(32.000000, 213.000000)">
                <path d="M38.0664179,37.2104167 C39.0537313,37.8729167 40.8089552,38.5354167 42.5641791,38.5354167 C44.9776119,38.5354167 46.0746269,37.3208333 46.0746269,35.775 C46.0746269,34.11875 45.0873134,33.2354167 42.6738806,32.3520833 C39.2731343,31.1375 37.7373134,29.2604167 37.7373134,27.0520833 C37.7373134,24.0708333 40.1507463,21.6416667 44.1,21.6416667 C45.9649254,21.6416667 47.6104478,22.19375 48.5977612,22.7458333 L47.8298507,25.175 C47.0619403,24.7333333 45.7455224,24.0708333 44.1,24.0708333 C42.1253731,24.0708333 41.0283582,25.175 41.0283582,26.6104167 C41.0283582,28.15625 42.1253731,28.9291667 44.538806,29.8125 C47.7201493,31.0270833 49.3656716,32.5729167 49.3656716,35.44375 C49.3656716,38.75625 46.8425373,41.075 42.4544776,41.075 C40.4798507,41.075 38.6149254,40.5229167 37.2985075,39.75 L38.0664179,37.2104167 Z" id="Shape" fill="#545D71"></path>
                <path d="M68.0149254,13.3604167 L68.0149254,35.775 C68.0149254,37.43125 68.0149254,39.3083333 68.1246269,40.5229167 L65.1626866,40.5229167 L65.0529851,37.3208333 L64.9432836,37.3208333 C63.9559701,39.41875 61.6522388,40.9645833 58.6902985,40.9645833 C54.1925373,40.9645833 50.791791,37.2104167 50.791791,31.5791667 C50.791791,25.3958333 54.6313433,21.6416667 59.019403,21.6416667 C61.8716418,21.6416667 63.7365672,22.9666667 64.6141791,24.4020833 L64.7238806,24.4020833 L64.7238806,13.3604167 L68.0149254,13.3604167 L68.0149254,13.3604167 Z M64.7238806,29.5916667 C64.7238806,29.15 64.7238806,28.5979167 64.6141791,28.15625 C64.0656716,26.0583333 62.3104478,24.2916667 59.7873134,24.2916667 C56.2768657,24.2916667 54.3022388,27.3833333 54.3022388,31.46875 C54.3022388,35.2229167 56.1671642,38.425 59.7873134,38.425 C61.9813433,38.425 64.0656716,36.8791667 64.7238806,34.45 C64.8335821,34.0083333 64.8335821,33.5666667 64.8335821,33.0145833 L64.8335821,29.5916667 L64.7238806,29.5916667 Z" id="Shape" fill="#545D71"></path>
                <path d="M74.158209,22.0833333 L76.6813433,31.46875 C77.1201493,33.5666667 77.6686567,35.44375 77.9977612,37.43125 L78.1074627,37.43125 C78.5462687,35.5541667 79.0947761,33.5666667 79.7529851,31.46875 L82.7149254,21.9729167 L85.5671642,21.9729167 L88.419403,31.2479167 C89.0776119,33.45625 89.6261194,35.44375 90.0649254,37.3208333 L90.1746269,37.3208333 C90.5037313,35.44375 90.9425373,33.45625 91.6007463,31.2479167 L94.2335821,21.9729167 L97.5246269,21.9729167 L91.6007463,40.5229167 L88.5291045,40.5229167 L85.6768657,31.6895833 C85.0186567,29.5916667 84.4701493,27.7145833 84.0313433,25.50625 L83.9216418,25.50625 C83.4828358,27.7145833 82.9343284,29.7020833 82.2761194,31.6895833 L79.3141791,40.5229167 L76.2425373,40.5229167 L70.6477612,21.9729167 L74.158209,21.9729167 L74.158209,22.0833333 Z" id="Shape" fill="#808993"></path>
                <path d="M106.520149,41.075 C101.583582,41.075 97.6343284,37.43125 97.6343284,31.46875 C97.6343284,25.2854167 101.693284,21.6416667 106.739552,21.6416667 C112.005224,21.6416667 115.625373,25.50625 115.625373,31.1375 C115.735075,38.09375 111.01791,41.075 106.520149,41.075 L106.520149,41.075 Z M106.629851,38.5354167 C109.811194,38.5354167 112.224627,35.5541667 112.224627,31.2479167 C112.224627,28.0458333 110.688806,24.18125 106.739552,24.18125 C102.790299,24.18125 101.144776,27.825 101.144776,31.3583333 C101.144776,35.44375 103.338806,38.5354167 106.629851,38.5354167 L106.629851,38.5354167 Z" id="Shape" fill="#808993"></path>
                <path d="M118.477612,27.825 C118.477612,25.6166667 118.477612,23.7395833 118.36791,22.0833333 L121.329851,22.0833333 L121.439552,25.7270833 L121.549254,25.7270833 C122.426866,23.1875 124.401493,21.6416667 126.705224,21.6416667 C127.034328,21.6416667 127.363433,21.6416667 127.582836,21.7520833 L127.582836,24.84375 C127.14403,24.84375 126.814925,24.7333333 126.376119,24.7333333 C123.962687,24.7333333 122.317164,26.5 121.878358,29.0395833 C121.768657,29.5916667 121.768657,30.0333333 121.768657,30.6958333 L121.768657,40.6333333 L118.477612,40.6333333 L118.477612,27.825 Z" id="Shape" fill="#808993"></path>
                <path d="M133.177612,22.0833333 L135.810448,26.0583333 C136.468657,27.1625 137.017164,28.0458333 137.675373,29.0395833 L137.785075,29.0395833 C138.443284,27.9354167 138.991791,27.0520833 139.65,26.0583333 L142.173134,22.0833333 L145.793284,22.0833333 L139.540299,31.0270833 L146.012687,40.6333333 L142.173134,40.6333333 L139.430597,36.4375 C138.662687,35.3333333 138.114179,34.3395833 137.45597,33.2354167 L137.346269,33.2354167 C136.68806,34.3395833 136.139552,35.3333333 135.371642,36.4375 L132.738806,40.6333333 L129.008955,40.6333333 L135.591045,31.1375 L129.447761,22.0833333 L133.177612,22.0833333 Z" id="Shape" fill="#808993"></path>
                <polygon id="Shape" fill="#E40039" points="15.138806 15.1270833 11.0798507 52.4479167 17.6619403 52.4479167 22.05 15.1270833"></polygon>
                <polygon id="Shape" fill="#7683A0" points="3.40074627 40.8541667 9.65373134 40.8541667 7.13059701 26.6104167 0.767910448 26.6104167"></polygon>
                <polygon id="Shape" fill="#F8AC01" points="31.0455224 0.552083333 22.488806 40.8541667 29.180597 40.8541667 38.1761194 0.552083333"></polygon>
            </g>
        </g>
    </g>
</svg>